<?xml version="1.0" encoding="utf-8"?>
<!-- Generator: Adobe Illustrator 18.1.1, SVG Export Plug-In . SVG Version: 6.00 Build 0)  -->
<!DOCTYPE svg PUBLIC "-//W3C//DTD SVG 1.0//EN" "http://www.w3.org/TR/2001/REC-SVG-20010904/DTD/svg10.dtd">
<svg version="1.0" id="Layer_1" xmlns="http://www.w3.org/2000/svg" xmlns:xlink="http://www.w3.org/1999/xlink" x="0px" y="0px"
	 viewBox="0 0 458.9 119.5" style="enable-background:new 0 0 458.9 119.5;" xml:space="preserve">
<path style="fill:#2E3191;" d="M59.3,57.1c0,1-0.8,1.9-1.9,1.9H2.1c-1,0-1.9-0.8-1.9-1.9V1.9c0-1,0.8-1.9,1.9-1.9h55.3
	c1,0,1.9,0.8,1.9,1.9V57.1z"/>
<path style="opacity:0.85;fill:#2E348E;" d="M126.7,57.2c0,1-0.8,1.8-1.8,1.8H69.5c-1,0-1.8-0.8-1.8-1.8V1.9c0-1,0.8-1.8,1.8-1.8
	h55.3c1,0,1.8,0.8,1.8,1.8V57.2z"/>
<path style="opacity:0.7;fill:#2E348E;" d="M193.1,57.2c0,1-0.8,1.8-1.8,1.8h-55.3c-1,0-1.8-0.8-1.8-1.8V1.9c0-1,0.8-1.8,1.8-1.8
	h55.3c1,0,1.8,0.8,1.8,1.8V57.2z"/>
<path style="opacity:0.55;fill:#2E348E;" d="M259.6,57.2c0,1-0.8,1.8-1.8,1.8h-55.3c-1,0-1.8-0.8-1.8-1.8V1.9c0-1,0.8-1.8,1.8-1.8
	h55.3c1,0,1.8,0.8,1.8,1.8V57.2z"/>
<path style="opacity:0.4;fill:#2E348E;" d="M326,57.2c0,1-0.8,1.8-1.8,1.8h-55.3c-1,0-1.8-0.8-1.8-1.8V1.9c0-1,0.8-1.8,1.8-1.8h55.3
	c1,0,1.8,0.8,1.8,1.8V57.2z"/>
<path style="opacity:0.25;fill:#2E348E;" d="M392.5,57.2c0,1-0.8,1.8-1.8,1.8h-55.3c-1,0-1.8-0.8-1.8-1.8V1.9c0-1,0.8-1.8,1.8-1.8
	h55.3c1,0,1.8,0.8,1.8,1.8V57.2z"/>
<path style="opacity:0.15;fill:#2E348E;" d="M458.9,57.2c0,1-0.8,1.8-1.8,1.8h-55.3c-1,0-1.8-0.8-1.8-1.8V1.9c0-1,0.8-1.8,1.8-1.8
	h55.3c1,0,1.8,0.8,1.8,1.8V57.2z"/>
<g>
	<path style="fill:#2E348E;" d="M0,74.8h6.4L21.5,98V74.8h6.7V110h-6.4l-15-23.1V110H0V74.8z"/>
	<path style="fill:#2E348E;" d="M47.7,83.3c2.5,0,4.8,0.6,6.9,1.8c2.2,1.2,3.8,2.9,5.1,5s1.8,4.4,1.8,6.8c0,2.5-0.6,4.8-1.8,6.9
		c-1.2,2.1-2.9,3.8-5,5s-4.4,1.8-7,1.8c-3.7,0-6.9-1.3-9.6-4c-2.6-2.7-4-5.9-4-9.7c0-4.1,1.5-7.5,4.5-10.2
		C41.3,84.5,44.3,83.3,47.7,83.3z M47.8,89.5c-2,0-3.7,0.7-5.1,2.1c-1.4,1.4-2,3.2-2,5.4c0,2.3,0.7,4.1,2,5.5c1.3,1.4,3,2.1,5.1,2.1
		s3.7-0.7,5.1-2.1c1.4-1.4,2-3.2,2-5.5s-0.7-4-2-5.4C51.6,90.2,49.9,89.5,47.8,89.5z"/>
	<path style="fill:#2E348E;" d="M64.1,84h6.7l6.6,15.4L83.9,84h6.6l-11.1,26h-4.2L64.1,84z"/>
	<path style="fill:#2E348E;" d="M113.5,84h6.5v26h-6.5v-2.8c-1.3,1.2-2.6,2.1-3.8,2.6c-1.3,0.5-2.7,0.8-4.2,0.8
		c-3.4,0-6.3-1.3-8.7-3.9c-2.5-2.6-3.7-5.8-3.7-9.7c0-4,1.2-7.3,3.6-9.9c2.4-2.6,5.3-3.9,8.7-3.9c1.6,0,3,0.3,4.4,0.9
		c1.4,0.6,2.6,1.5,3.8,2.7V84z M106.7,89.3c-2,0-3.7,0.7-5,2.1c-1.3,1.4-2,3.3-2,5.5c0,2.2,0.7,4.1,2,5.6c1.4,1.5,3,2.2,5,2.2
		c2.1,0,3.8-0.7,5.1-2.1c1.4-1.4,2-3.3,2-5.6c0-2.3-0.7-4.1-2-5.5C110.4,90.1,108.7,89.3,106.7,89.3z"/>
	<path style="fill:#2E348E;" d="M142.6,87.6l-4,4c-1.6-1.6-3.1-2.4-4.5-2.4c-0.7,0-1.3,0.2-1.7,0.5c-0.4,0.3-0.6,0.7-0.6,1.2
		c0,0.4,0.1,0.7,0.4,1c0.3,0.3,0.9,0.7,2,1.2l2.4,1.2c2.5,1.2,4.3,2.5,5.2,3.8c0.9,1.3,1.4,2.8,1.4,4.5c0,2.3-0.8,4.2-2.5,5.8
		c-1.7,1.5-4,2.3-6.8,2.3c-3.8,0-6.8-1.5-9.1-4.5l4-4.4c0.8,0.9,1.7,1.6,2.7,2.2c1,0.5,1.9,0.8,2.7,0.8c0.9,0,1.6-0.2,2.1-0.6
		s0.8-0.9,0.8-1.4c0-1-0.9-2-2.8-2.9l-2.2-1.1c-4.2-2.1-6.3-4.8-6.3-8c0-2.1,0.8-3.8,2.4-5.3c1.6-1.5,3.6-2.2,6.1-2.2
		c1.7,0,3.3,0.4,4.8,1.1C140.3,85.2,141.6,86.2,142.6,87.6z"/>
</g>
<g style="opacity:0.85;">
	<path style="fill:#2E348E;" d="M156.3,74.8h19.2v6.6H163v6.4h12.6v6.4H163v9.3h12.6v6.6h-19.2V74.8z"/>
	<path style="fill:#2E348E;" d="M182,84h6.5v3c1.1-1.2,2.4-2.1,3.7-2.8c1.4-0.6,2.9-0.9,4.5-0.9c1.6,0,3.1,0.4,4.4,1.2
		c1.3,0.8,2.4,2,3.2,3.5c1-1.5,2.3-2.7,3.8-3.5c1.5-0.8,3.2-1.2,4.9-1.2c1.9,0,3.5,0.4,4.9,1.3c1.4,0.9,2.4,2,3,3.4
		c0.6,1.4,0.9,3.6,0.9,6.8V110h-6.6V96.8c0-3-0.4-4.9-1.1-6s-1.8-1.6-3.3-1.6c-1.1,0-2.1,0.3-3,1c-0.9,0.6-1.5,1.5-2,2.6
		c-0.4,1.1-0.6,2.9-0.6,5.4V110h-6.6V97.4c0-2.3-0.2-4-0.5-5.1s-0.9-1.8-1.5-2.3s-1.5-0.8-2.5-0.8c-1.1,0-2.1,0.3-3,1
		c-0.9,0.6-1.6,1.6-2,2.7s-0.7,3-0.7,5.5V110H182V84z"/>
	<path style="fill:#2E348E;" d="M235.6,84v2.9c1.2-1.2,2.5-2.1,3.8-2.7c1.4-0.6,2.8-0.9,4.4-0.9c3.4,0,6.3,1.3,8.7,3.9
		c2.4,2.6,3.6,5.9,3.6,9.9c0,3.9-1.2,7.1-3.7,9.7c-2.5,2.6-5.4,3.9-8.7,3.9c-1.5,0-2.9-0.3-4.2-0.8s-2.6-1.4-3.9-2.6v12.3h-6.5V84
		H235.6z M242.4,89.3c-2.1,0-3.8,0.7-5.1,2.1s-2,3.2-2,5.5c0,2.3,0.7,4.2,2,5.6c1.4,1.4,3.1,2.1,5.1,2.1c2,0,3.7-0.7,5-2.2
		c1.4-1.5,2-3.3,2-5.6c0-2.2-0.7-4.1-2-5.5S244.5,89.3,242.4,89.3z"/>
	<path style="fill:#2E348E;" d="M260.9,84h5.6v3.3c0.6-1.3,1.4-2.3,2.4-2.9c1-0.7,2.1-1,3.3-1c0.8,0,1.7,0.2,2.7,0.7l-2,5.6
		c-0.8-0.4-1.4-0.6-1.9-0.6c-1,0-1.9,0.6-2.5,1.9c-0.7,1.2-1,3.7-1,7.3l0,1.3V110h-6.5V84z"/>
	<path style="fill:#2E348E;" d="M305.1,98.9h-21c0.3,1.8,1.1,3.3,2.4,4.4c1.3,1.1,3,1.6,5,1.6c2.4,0,4.5-0.9,6.3-2.6l5.5,2.6
		c-1.4,1.9-3,3.4-4.9,4.3c-1.9,0.9-4.2,1.4-6.8,1.4c-4.1,0-7.4-1.3-10-3.9c-2.6-2.6-3.9-5.8-3.9-9.7c0-4,1.3-7.3,3.8-9.9
		c2.6-2.6,5.8-3.9,9.6-3.9c4.1,0,7.4,1.3,10,3.9c2.6,2.6,3.9,6.1,3.9,10.4L305.1,98.9z M298.6,93.8c-0.4-1.5-1.3-2.6-2.6-3.5
		c-1.3-0.9-2.7-1.4-4.4-1.4c-1.8,0-3.4,0.5-4.8,1.5c-0.9,0.6-1.7,1.8-2.4,3.4H298.6z"/>
	<path style="fill:#2E348E;" d="M327.3,87.6l-4,4c-1.6-1.6-3.1-2.4-4.5-2.4c-0.7,0-1.3,0.2-1.7,0.5c-0.4,0.3-0.6,0.7-0.6,1.2
		c0,0.4,0.1,0.7,0.4,1c0.3,0.3,0.9,0.7,2,1.2l2.4,1.2c2.5,1.2,4.3,2.5,5.2,3.8c0.9,1.3,1.4,2.8,1.4,4.5c0,2.3-0.8,4.2-2.5,5.8
		c-1.7,1.5-4,2.3-6.8,2.3c-3.8,0-6.8-1.5-9.1-4.5l4-4.4c0.8,0.9,1.7,1.6,2.7,2.2c1,0.5,1.9,0.8,2.7,0.8c0.9,0,1.6-0.2,2.1-0.6
		s0.8-0.9,0.8-1.4c0-1-0.9-2-2.8-2.9l-2.2-1.1c-4.2-2.1-6.3-4.8-6.3-8c0-2.1,0.8-3.8,2.4-5.3c1.6-1.5,3.6-2.2,6.1-2.2
		c1.7,0,3.3,0.4,4.8,1.1C325,85.2,326.3,86.2,327.3,87.6z"/>
	<path style="fill:#2E348E;" d="M353.2,84h6.5v26h-6.5v-2.8c-1.3,1.2-2.6,2.1-3.8,2.6c-1.3,0.5-2.7,0.8-4.2,0.8
		c-3.4,0-6.3-1.3-8.7-3.9c-2.5-2.6-3.7-5.8-3.7-9.7c0-4,1.2-7.3,3.6-9.9c2.4-2.6,5.3-3.9,8.7-3.9c1.6,0,3,0.3,4.4,0.9
		c1.4,0.6,2.6,1.5,3.8,2.7V84z M346.3,89.3c-2,0-3.7,0.7-5,2.1c-1.3,1.4-2,3.3-2,5.5c0,2.2,0.7,4.1,2,5.6c1.4,1.5,3,2.2,5,2.2
		c2.1,0,3.8-0.7,5.1-2.1c1.4-1.4,2-3.3,2-5.6c0-2.3-0.7-4.1-2-5.5C350.1,90.1,348.4,89.3,346.3,89.3z"/>
	<path style="fill:#2E348E;" d="M383.2,87.6l-4,4c-1.6-1.6-3.1-2.4-4.5-2.4c-0.7,0-1.3,0.2-1.7,0.5c-0.4,0.3-0.6,0.7-0.6,1.2
		c0,0.4,0.1,0.7,0.4,1c0.3,0.3,0.9,0.7,2,1.2l2.4,1.2c2.5,1.2,4.3,2.5,5.2,3.8c0.9,1.3,1.4,2.8,1.4,4.5c0,2.3-0.8,4.2-2.5,5.8
		c-1.7,1.5-4,2.3-6.8,2.3c-3.8,0-6.8-1.5-9.1-4.5l4-4.4c0.8,0.9,1.7,1.6,2.7,2.2c1,0.5,1.9,0.8,2.7,0.8c0.9,0,1.6-0.2,2.1-0.6
		s0.8-0.9,0.8-1.4c0-1-0.9-2-2.8-2.9l-2.2-1.1c-4.2-2.1-6.3-4.8-6.3-8c0-2.1,0.8-3.8,2.4-5.3c1.6-1.5,3.6-2.2,6.1-2.2
		c1.7,0,3.3,0.4,4.8,1.1C380.9,85.2,382.2,86.2,383.2,87.6z"/>
</g>
<g style="opacity:0.7;">
	<path style="fill:#2E348E;" d="M394.2,107.1c0.6,0,1.1,0.2,1.5,0.6s0.6,0.9,0.6,1.5s-0.2,1.1-0.6,1.5s-0.9,0.6-1.5,0.6
		s-1.1-0.2-1.5-0.6s-0.6-0.9-0.6-1.5s0.2-1.1,0.6-1.5S393.6,107.1,394.2,107.1z"/>
	<path style="fill:#2E348E;" d="M415.3,99.2l-3.1,1.7c-0.6-0.6-1.2-1-1.7-1.3s-1.2-0.4-2-0.4c-1.4,0-2.5,0.4-3.4,1.2
		c-0.9,0.8-1.3,1.9-1.3,3.2c0,1.3,0.4,2.3,1.2,3.1c0.8,0.8,1.9,1.2,3.3,1.2c1.7,0,3-0.6,3.9-1.7l2.9,2c-1.6,2.1-3.8,3.1-6.8,3.1
		c-2.6,0-4.7-0.8-6.1-2.3s-2.2-3.4-2.2-5.4c0-1.4,0.4-2.8,1.1-4s1.7-2.2,3-2.9s2.7-1,4.3-1c1.5,0,2.8,0.3,4,0.9
		S414.5,98.1,415.3,99.2z"/>
	<path style="fill:#2E348E;" d="M424.9,95.8c1.4,0,2.7,0.4,4,1.1s2.2,1.7,2.9,2.9s1,2.5,1,3.9c0,1.4-0.3,2.7-1,3.9s-1.6,2.2-2.9,2.9
		s-2.5,1-4,1c-2.1,0-4-0.8-5.5-2.3s-2.3-3.4-2.3-5.5c0-2.3,0.9-4.3,2.6-5.8C421.3,96.4,423,95.8,424.9,95.8z M425,99.3
		c-1.2,0-2.1,0.4-2.9,1.2s-1.2,1.8-1.2,3.1c0,1.3,0.4,2.3,1.1,3.1c0.8,0.8,1.7,1.2,2.9,1.2s2.1-0.4,2.9-1.2s1.2-1.9,1.2-3.1
		s-0.4-2.3-1.1-3.1S426.2,99.3,425,99.3z"/>
	<path style="fill:#2E348E;" d="M435.1,96.1h3.7v1.7c0.6-0.7,1.3-1.2,2.1-1.6c0.8-0.3,1.6-0.5,2.6-0.5c0.9,0,1.8,0.2,2.5,0.7
		s1.4,1.1,1.8,2c0.6-0.9,1.3-1.5,2.2-2s1.8-0.7,2.8-0.7c1.1,0,2,0.2,2.8,0.7s1.4,1.1,1.7,1.9c0.4,0.8,0.5,2.1,0.5,3.9v8.7h-3.8v-7.5
		c0-1.7-0.2-2.8-0.6-3.4s-1-0.9-1.9-0.9c-0.6,0-1.2,0.2-1.7,0.5s-0.9,0.9-1.1,1.5s-0.4,1.7-0.4,3.1v6.7h-3.8v-7.2
		c0-1.3-0.1-2.3-0.3-2.9s-0.5-1-0.9-1.3s-0.9-0.4-1.4-0.4c-0.6,0-1.2,0.2-1.7,0.6c-0.5,0.4-0.9,0.9-1.1,1.6s-0.4,1.7-0.4,3.1v6.6
		h-3.7V96.1z"/>
</g>
<g>
</g>
<g>
</g>
<g>
</g>
<g>
</g>
<g>
</g>
<g>
</g>
<g>
</g>
<g>
</g>
<g>
</g>
<g>
</g>
<g>
</g>
</svg>
